#!OML:ASF E:\VariousWalksJay\Project 1\Capture day 1\Session 1\Actor2.ASF
:FULLY-SPECIFIED
:DEGREES
690
root 8.02101 15.4606 21.0647 5.58233 26.4193 -7.83947
lowerback 8.81368 -3.67503 5.5817
upperback 3.62256 -4.34549 1.51939
thorax -1.45823 -2.12074 -1.10995
lowerneck 1.3235 -7.81222 -5.97739
upperneck -6.98401 -9.79199 17.4844
head -1.03704 -5.21399 6.295
rclavicle -1.61016e-014 1.51076e-014
rhumerus -10.7204 41.4592 -63.5413
rradius 83.926
rwrist -6.55792
rhand -13.1975 -6.51404
rfingers 7.12502
rthumb 12.9028 -36.0952
lclavicle -1.61016e-014 1.51076e-014
lhumerus -10.3171 -25.3758 59.0355
lradius 78.9559
lwrist 28.656
lhand -18.8861 -6.99546
lfingers 7.12502
lthumb 7.41506 22.8546
rfemur -43.7391 -6.68689 30.0514
rtibia 65.9687
rfoot -26.6711 -0.343694
rtoes -3.35471
lfemur -43.6631 19.3405 -11.3866
ltibia 65.2232
lfoot -27.4249 -2.85796
ltoes -10.9502
691
root 8.01855 15.4189 21.0462 5.76879 26.1302 -7.79569
lowerback 9.1296 -3.63608 5.49852
upperback 3.70542 -4.28079 1.4424
thorax -1.54187 -2.08838 -1.13394
lowerneck 1.26213 -7.83031 -6.00008
upperneck -7.24636 -9.78434 17.5282
head -1.09935 -5.21901 6.31787
rclavicle 9.06458e-014 -2.54444e-014
rhumerus -10.1407 41.2211 -63.4701
rradius 83.8847
rwrist -6.44605
rhand -13.0178 -6.60244
rfingers 7.12502
rthumb 13.076 -36.1725
lclavicle 9.06458e-014 -2.54444e-014
lhumerus -9.57769 -25.3836 58.2765
lradius 79.2718
lwrist 28.5377
lhand -18.5449 -6.8588
lfingers 7.12502
lthumb 7.74445 22.9794
rfemur -44.2894 -6.72732 30.086
rtibia 66.5015
rfoot -26.844 -0.162763
rtoes -3.13584
lfemur -44.1917 19.664 -11.5291
ltibia 65.8289
lfoot -27.6414 -2.85142
ltoes -11.0657
692
root 8.01838 15.382 21.0289 5.9176 25.8135 -7.71831
lowerback 9.45679 -3.58891 5.41055
upperback 3.79255 -4.20599 1.35155
thorax -1.62712 -2.05089 -1.1708
lowerneck 1.16611 -7.85123 -6.02131
upperneck -7.42452 -9.79088 17.5523
head -1.13106 -5.22588 6.32973
rclavicle 1.17283e-014 1.11319e-014
rhumerus -9.57804 41.0776 -63.4027
rradius 83.7807
rwrist -6.35068
rhand -12.8604 -6.69428
rfingers 7.12502
rthumb 13.2278 -36.2546
lclavicle 1.17283e-014 1.11319e-014
lhumerus -8.90161 -25.4101 57.5942
lradius 79.5257
lwrist 28.4243
lhand -18.2467 -6.73378
lfingers 7.12502
lthumb 8.03223 23.0936
rfemur -44.7383 -6.7455 30.0694
rtibia 66.9736
rfoot -27.0061 -0.0055228
rtoes -3.02762
lfemur -44.5858 19.9452 -11.6865
ltibia 66.3504
lfoot -27.8696 -2.76926
ltoes -11.1741
693
root 8.0205 15.3494 21.013 6.06 25.4902 -7.60789
lowerback 9.76241 -3.53345 5.31746
upperback 3.87721 -4.1232 1.25428
thorax -1.7025 -2.00931 -1.21427
lowerneck 1.04487 -7.87456 -6.04973
upperneck -7.53311 -9.80893 17.5748
head -1.13675 -5.23443 6.33842
rclavicle -1.19271e-014 2.14687e-014
rhumerus -9.03541 41.0068 -63.3217
rradius 83.6288
rwrist -6.26464
rhand -12.7566 -6.78867
rfingers 7.12502
rthumb 13.3278 -36.3424
lclavicle -1.19271e-014 2.14687e-014
lhumerus -8.25683 -25.4502 56.9913
lradius 79.7063
lwrist 28.3282
lhand -17.9839 -6.60718
lfingers 7.12502
lthumb 8.28589 23.2103
rfemur -45.1192 -6.73198 30.002
rtibia 67.386
rfoot -27.1758 0.110526
rtoes -3.0402
lfemur -44.903 20.1703 -11.8692
ltibia 66.8052
lfoot -28.0895 -2.61842
ltoes -11.2865
694
root 8.02432 15.3204 20.9989 6.21433 25.1815 -7.48692
lowerback 10.0206 -3.47248 5.23227
upperback 3.95087 -4.03617 1.16214
thorax -1.76298 -1.96558 -1.26039
lowerneck 0.908396 -7.90103 -6.08122
upperneck -7.58344 -9.83804 17.5956
head -1.12164 -5.24541 6.34409
rclavicle 3.22031e-014 -5.56597e-015
rhumerus -8.52678 40.9891 -63.225
rradius 83.4478
rwrist -6.16029
rhand -12.7173 -6.87539
rfingers 7.12502
rthumb 13.3657 -36.4267
lclavicle 3.22031e-014 -5.56597e-015
lhumerus -7.64775 -25.4923 56.4782
lradius 79.8316
lwrist 28.2518
lhand -17.7606 -6.49134
lfingers 7.12502
lthumb 8.50136 23.3175
rfemur -45.4648 -6.68861 29.9113
rtibia 67.7409
rfoot -27.3624 0.181844
rtoes -3.13275
lfemur -45.1997 20.3341 -12.0628
ltibia 67.2133
lfoot -28.2821 -2.42025
ltoes -11.3909
695
root 8.02922 15.2946 20.9868 6.38034 24.8929 -7.37623
lowerback 10.2246 -3.4055 5.16294
upperback 4.015 -3.94349 1.08481
thorax -1.80318 -1.91889 -1.30404
lowerneck 0.757255 -7.92764 -6.12144
upperneck -7.59033 -9.87192 17.6271
head -1.0898 -5.25642 6.35212
rclavicle 4.45278e-014 -2.06736e-014
rhumerus -8.05327 41.005 -63.1041
rradius 83.2583
rwrist -6.02287
rhand -12.7484 -6.94697
rfingers 7.12502
rthumb 13.3357 -36.5002
lclavicle 4.45278e-014 -2.06736e-014
lhumerus -7.07285 -25.5268 56.059
lradius 79.9169
lwrist 28.2025
lhand -17.5678 -6.3709
lfingers 7.12502
lthumb 8.68745 23.4303
rfemur -45.7841 -6.60929 29.82
rtibia 68.0386
rfoot -27.5688 0.206623
rtoes -3.27747
lfemur -45.4976 20.4471 -12.2485
ltibia 67.5877
lfoot -28.4439 -2.18869
ltoes -11.4931
